HIERARCHY
ROOT pelvis
{
  OFFSET 0 100 0
  CHANNELS 6 Xposition Yposition Zposition Zrotation Xrotation Yrotation
  JOINT pelvis_right_femur
  {
    OFFSET -10.78128 -3.44521 -0.5502486
    CHANNELS 3 Zrotation Xrotation Yrotation
    JOINT right_femur_tibia
    {
      OFFSET -0.8047443 -44.0398 -0.1307829
      CHANNELS 3 Zrotation Xrotation Yrotation
      JOINT right_tibia_foot
      {
        OFFSET 3.006224 -47.83518 -5
        CHANNELS 3 Zrotation Xrotation Yrotation
        End Site
        {
          OFFSET 0 -5 15
        }
      }
    }
  }
  JOINT pelvis_left_femur
  {
    OFFSET 10.78128 -3.44521 -0.5502486
    CHANNELS 3 Zrotation Xrotation Yrotation
    JOINT left_femur_tibia
    {
      OFFSET 0.8047443 -44.0398 -0.1307829
      CHANNELS 3 Zrotation Xrotation Yrotation
      JOINT left_tibia_foot
      {
        OFFSET -4.370144 -48.10324 -4.275266
        CHANNELS 3 Zrotation Xrotation Yrotation
        End Site
        {
          OFFSET 0 -5 15
        }
      }
    }
  }
  JOINT pelvis_spine1
  {
    OFFSET 0 6.468898 -3.129235
    CHANNELS 3 Zrotation Xrotation Yrotation
    JOINT spine1
    {
      OFFSET 0 23.15396 4.99043
      CHANNELS 3 Zrotation Xrotation Yrotation
      JOINT spine2
      {
        OFFSET 0 20.79997 -5.064912
        CHANNELS 3 Zrotation Xrotation Yrotation
        JOINT neck
        {
          OFFSET 0 14.38658 9.616178
          CHANNELS 3 Zrotation Xrotation Yrotation
          End Site
          {
            OFFSET 0 20 0
          }
        }
      }
      JOINT right_manubrium
      {
        OFFSET -5.722621 16.35077 3.967754
        CHANNELS 3 Zrotation Xrotation Yrotation
        JOINT right_clavicle
        {
          OFFSET -13.16364 1.694482 -4.693211
          CHANNELS 3 Zrotation Xrotation Yrotation
          JOINT right_humerus
          {
            OFFSET -28.5034 -0.3100689 -2.792744
            CHANNELS 3 Zrotation Xrotation Yrotation
            JOINT right_radius
            {
              OFFSET -25.15693 0.02248979 -1.271978
              CHANNELS 3 Zrotation Xrotation Yrotation
              End Site
              {
                OFFSET -15 0 0
              }
            }
          }
        }
      }
      JOINT left_manubrium
      {
        OFFSET 5.722621 16.35077 3.967754
        CHANNELS 3 Zrotation Xrotation Yrotation
        JOINT left_clavicle
        {
          OFFSET 13.16364 1.694482 -4.693211
          CHANNELS 3 Zrotation Xrotation Yrotation
          JOINT left_humerus
          {
            OFFSET 29.39168 -1.063119 -2.237045
            CHANNELS 3 Zrotation Xrotation Yrotation
            JOINT left_radius
            {
              OFFSET 24.59957 -0.9528479 0.9047498
              CHANNELS 3 Zrotation Xrotation Yrotation
              End Site
              {
                OFFSET 15 -0 -0
              }
            }
          }
        }
      }
    }
  }
}
MOTION
Frames: 13
Frame Time: 0.0416666666667
-1162.842 94.77717 2390.012 -6.42111 -4.272665 -64.98074 -0.6211606 -16.78839 -8.192054 -0 22.9903 -0 -12.67579 3.145847 1.89752 -5.619878 12.97123 -13.16767 -0 8.653136 -0 -0.6639796 -19.42031 15.92341 -2.075754 -0.6181586 4.212198 -0.1053754 10.56672 -6.817224 1.732069 21.52067 8.532661 2.013322 -16.49457 10.50883 3.61337 -15.83897 10.64767 89.31295 32.9397 -20.3747 -0 0 12.21746 -31.75423 24.65839 14.62694 5.621599 -20.9323 -4.903324 -84.01619 22.24367 11.63736 0 0 -24.34898 0.07439139 10.24739 14.43171
-1167.252 93.36824 2392.233 -5.359687 -4.096717 -64.62162 -0.473461 -19.61838 -8.865304 -0 15.26417 -0 -11.39405 2.536588 1.70341 -5.908326 14.30206 -12.28112 -0 9.298969 -0 0.5216235 -20.37178 15.46222 -2.180396 -0.6582915 3.794237 0.1846912 10.67322 -7.288035 1.648281 21.43249 8.307638 2.041604 -16.46444 10.10869 3.695733 -15.4084 10.57343 90.11652 32.69963 -21.65605 -0 0 11.24795 -30.49951 23.95438 13.99868 5.777697 -21.38315 -5.040248 -83.30267 21.9971 10.22348 0 0 -25.19339 0.3749573 9.813861 14.02255
-1171.991 91.83641 2394.592 -4.612409 -3.826523 -64.34449 0.004031205 -21.9802 -9.246064 -0 9.832103 -0 -10.73065 2.90651 1.711094 -6.089516 15.27241 -11.19853 -0 11.42935 -0 2.061745 -20.55428 15.27262 -2.251973 -0.6670869 3.525379 0.4143689 10.76328 -7.624905 1.577686 21.35091 8.12651 2.091448 -16.49211 9.758569 3.781734 -15.12536 10.5432 90.59052 32.48351 -22.49619 -0 0 10.56916 -29.50931 23.30387 13.53853 5.864386 -21.68237 -5.125664 -82.86928 21.80628 9.325964 0 0 -25.71281 0.5669799 9.435115 13.77439
-1177.088 90.3893 2397.078 -4.299003 -3.490553 -64.16979 0.8533631 -23.69157 -9.385061 -0 6.605978 -0 -10.72622 3.882531 1.90328 -6.098927 15.8886 -10.00922 -0 15.22548 -0 3.576362 -19.91985 15.17439 -2.293574 -0.6532007 3.409795 0.5667636 10.83529 -7.815217 1.52612 21.288 7.991699 2.149231 -16.55508 9.480595 3.861863 -15.00016 10.55046 90.74569 32.33426 -22.88461 -0 0 10.21044 -28.83715 22.76938 13.25968 5.88325 -21.8244 -5.161518 -82.70124 21.69409 8.946086 0 0 -25.90311 0.6491649 9.145666 13.68538
-1182.538 89.24172 2399.663 -4.482789 -3.11741 -64.13996 2.098031 -24.47764 -9.263428 -0 5.478238 -0 -11.3486 5.058617 2.231978 -5.88691 16.02746 -8.807227 -0 20.89429 -0 4.756258 -18.41279 15.01672 -2.311873 -0.62605 3.448653 0.6281122 10.88808 -7.850897 1.497465 21.25403 7.905307 2.204382 -16.63336 9.291745 3.928788 -15.04245 10.58824 90.59676 32.29006 -22.8187 -0 0 10.19516 -28.52704 22.40265 13.17051 5.837126 -21.8082 -5.148478 -82.78573 21.67768 9.079141 0 0 -25.76447 0.6199985 8.973197 13.7557
-1188.277 88.60292 2402.29 -5.14531 -2.735948 -64.31478 3.692164 -24.0137 -8.82684 -0 6.226851 -0 -12.47691 6.011545 2.58672 -5.422788 15.4295 -7.69952 -0 28.498 -0 5.375914 -16.03162 14.70442 -2.313505 -0.5940414 3.642747 0.5878556 10.91862 -7.725485 1.493511 21.25613 7.874651 2.250984 -16.71736 9.209103 3.976818 -15.26277 10.65167 90.15367 32.38335 -22.29386 -0 0 10.54235 -28.6253 22.25041 13.2836 5.728483 -21.63434 -5.083735 -83.12151 21.7693 9.729541 0 0 -25.2965 0.4764707 8.943016 13.98935
-1194.171 88.62997 2404.883 -6.133269 -2.388164 -64.74843 5.437718 -22.02533 -8.049114 -0 8.275635 -0 -13.85661 6.381706 2.779898 -4.723565 13.75272 -6.785866 -0 37.65779 -0 5.339516 -12.93187 14.21389 -2.301966 -0.5635931 3.99067 0.4405343 10.91987 -7.435258 1.513756 21.29628 7.916633 2.289095 -16.81484 9.253993 4.000641 -15.66949 10.73921 89.42316 32.63703 -21.30683 -0 0 11.25944 -29.18317 22.35751 13.61869 5.560465 -21.30719 -4.959385 -83.7201 21.97427 10.90935 0 0 -24.50384 0.2173851 9.081412 14.38924
-1200.028 89.35272 2407.363 -7.143358 -2.144564 -65.44859 6.963662 -18.4661 -6.967707 -0 10.57699 -0 -15.10026 6.019651 2.598566 -3.881065 10.72813 -6.11121 -0 47.25676 -0 4.74357 -9.509195 13.60735 -2.274869 -0.5383029 4.483107 0.1898432 10.88048 -6.984722 1.555373 21.36878 8.058331 2.32546 -16.95463 9.452304 3.993798 -16.26068 10.8527 88.42022 33.05369 -19.87274 -0 0 12.32574 -30.2452 22.7619 14.19792 5.3397 -20.8416 -4.763083 -84.59793 22.28521 12.61976 0 0 -23.41129 -0.1494446 9.414503 14.94678
-1205.667 90.6151 2409.667 -7.838143 -2.096551 -66.34599 7.870487 -13.67723 -5.661441 -0 11.93894 -0 -15.81263 5.045331 1.944671 -3.029461 6.373691 -5.638239 -0 55.45828 -0 3.868274 -6.35671 13.044 -2.222143 -0.5174886 5.096499 -0.1471834 10.78823 -6.393764 1.614031 21.45908 8.329255 2.372309 -17.18046 9.827122 3.948405 -17.01298 10.99558 87.18406 33.59817 -18.04858 -0 0 13.67471 -31.8209 23.47658 15.03237 5.078908 -20.26921 -4.483749 -85.75903 22.67416 14.82058 0 0 -22.08026 -0.5998499 9.957728 15.63119
-1210.986 92.09624 2411.777 -8.074917 -2.296445 -67.31339 7.990333 -8.33515 -4.243374 -0 11.75284 -0 -15.81456 3.659276 0.9627214 -2.237313 1.086667 -5.280802 -0 60.30492 -0 3.033834 -4.039267 12.76582 -2.127259 -0.4938457 5.792235 -0.5403862 10.63738 -5.700011 1.685582 21.54634 8.743524 2.443201 -17.52775 10.38189 3.858929 -17.8737 11.16926 85.78508 34.18384 -15.94443 -0 0 15.19305 -33.84717 24.46191 16.10295 4.796527 -19.63604 -4.123199 -87.17343 23.08809 17.40471 0 0 -20.61073 -1.093432 10.69381 16.38871
-1215.983 93.42045 2413.715 -8.017217 -2.674507 -68.22721 7.536464 -3.139788 -2.905195 -0 10.41363 -0 -15.26767 1.879742 -0.01370567 -1.424335 -4.510385 -4.942935 -0 60.58899 -0 2.428373 -2.80481 12.99309 -1.974269 -0.4521928 6.524331 -0.9535453 10.43526 -4.951779 1.766963 21.61113 9.280571 2.546736 -17.99114 11.08127 3.730535 -18.76427 11.36919 84.31194 34.68328 -13.70599 -0 0 16.74809 -36.16495 25.60727 17.34504 4.512141 -18.98749 -3.70772 -88.76361 23.45591 20.19847 0 0 -19.1183 -1.586232 11.55019 17.15805
-1220.714 94.28429 2415.539 -7.951946 -3.026593 -69.01886 6.976138 1.481759 -1.873024 -0 8.880363 -0 -14.52039 -0.440058 -0.7029136 -0.4063939 -9.81411 -4.505523 -0 56.25329 -0 2.095628 -2.461804 13.74486 -1.760539 -0.3741313 7.248826 -1.353233 10.20175 -4.197463 1.854573 21.64445 9.880365 2.680809 -18.51058 11.84576 3.584815 -19.59804 11.58335 82.8487 34.97406 -11.47961 -0 0 18.22732 -38.53389 26.74605 18.64744 4.240551 -18.35212 -3.286971 -90.41007 23.71136 22.99119 0 0 -17.6994 -2.048344 12.40208 17.89165
-1225.262 94.52806 2417.332 -8.013322 -3.114222 -69.68461 6.717614 5.374775 -1.256443 -0 7.913194 -0 -13.83737 -3.366618 -1.063619 0.9502247 -14.34586 -3.851354 -0 48.15497 -0 2.046485 -2.526576 14.77307 -1.507908 -0.2506428 7.926325 -1.712671 9.962382 -3.481907 1.941856 21.65102 10.46014 2.831257 -18.99612 12.57013 3.45339 -20.30645 11.79409 81.46524 34.99891 -9.390531 -0 0 19.5598 -40.68735 27.70707 19.87049 3.9905 -17.7425 -2.914082 -91.97594 23.82284 25.57532 0 0 -16.41243 -2.469683 13.11494 18.56199
